<svg width="1504" height="999" viewBox="0 0 1504 999" fill="none" xmlns="http://www.w3.org/2000/svg">
<g clip-path="url(#clip0_3_7187)">
<path d="M0 24C0 10.7452 10.7452 0 24 0H1480C1493.25 0 1504 10.7452 1504 24V975C1504 988.255 1493.25 999 1480 999H24C10.7452 999 0 988.255 0 975V24Z" fill="url(#paint0_linear_3_7187)" fill-opacity="0.1"/>
<g filter="url(#filter0_f_3_7187)">
<circle cx="606" cy="452" r="269" fill="#A9FFFF" fill-opacity="0.2"/>
</g>
<g filter="url(#filter1_f_3_7187)">
<circle cx="982" cy="651" r="269" fill="#F59AF0" fill-opacity="0.2"/>
</g>
</g>
<defs>
<filter id="filter0_f_3_7187" x="73" y="-81" width="1066" height="1066" filterUnits="userSpaceOnUse" color-interpolation-filters="sRGB">
<feFlood flood-opacity="0" result="BackgroundImageFix"/>
<feBlend mode="normal" in="SourceGraphic" in2="BackgroundImageFix" result="shape"/>
<feGaussianBlur stdDeviation="132" result="effect1_foregroundBlur_3_7187"/>
</filter>
<filter id="filter1_f_3_7187" x="449" y="118" width="1066" height="1066" filterUnits="userSpaceOnUse" color-interpolation-filters="sRGB">
<feFlood flood-opacity="0" result="BackgroundImageFix"/>
<feBlend mode="normal" in="SourceGraphic" in2="BackgroundImageFix" result="shape"/>
<feGaussianBlur stdDeviation="132" result="effect1_foregroundBlur_3_7187"/>
</filter>
<linearGradient id="paint0_linear_3_7187" x1="-180.327" y1="-98.9109" x2="1684.14" y2="43.9167" gradientUnits="userSpaceOnUse">
<stop stop-color="#55B3E7"/>
<stop offset="0.634499" stop-color="#AD6CFF" stop-opacity="0.937"/>
<stop offset="0.956424" stop-color="#F4E9FF"/>
</linearGradient>
<clipPath id="clip0_3_7187">
<path d="M0 24C0 10.7452 10.7452 0 24 0H1480C1493.25 0 1504 10.7452 1504 24V975C1504 988.255 1493.25 999 1480 999H24C10.7452 999 0 988.255 0 975V24Z" fill="white"/>
</clipPath>
</defs>
</svg>
