<svg width="1440" height="1352" viewBox="0 0 1440 1352" fill="none" xmlns="http://www.w3.org/2000/svg">
<g opacity="0.5" filter="url(#filter0_f_1_4731)">
<path d="M374.152 318.755C345.473 297.139 365.191 264.558 378.635 250.97C214.345 288.87 304.279 317.084 299.155 359.893C294.03 402.703 391.202 395.502 407.09 377.747C422.978 359.991 410.001 345.774 374.152 318.755Z" fill="#41EAD4"/>
</g>
<g opacity="0.15" filter="url(#filter1_f_1_4731)">
<path d="M375.278 925.022C321.158 884.231 358.368 822.748 383.738 797.105C73.7088 868.626 243.422 921.869 233.752 1002.65C224.081 1083.44 407.452 1069.85 437.435 1036.34C467.417 1002.84 442.928 976.01 375.278 925.022Z" fill="#41EAD4"/>
</g>
<g opacity="0.1" filter="url(#filter2_f_1_4731)">
<path d="M449.587 1010.04C448.18 959.107 384.739 947.91 353.195 948.678C564.691 814.447 515.385 935.622 578.495 971.986C641.604 1008.35 537.169 1102.57 497.587 1101.82C458.005 1101.08 451.347 1073.71 449.587 1010.04Z" fill="#41ADEA"/>
</g>
<g opacity="0.5" filter="url(#filter3_f_1_4731)">
<path d="M978.34 484.992C1007.02 463.376 987.3 430.795 973.856 417.206C1138.15 455.107 1048.21 483.321 1053.34 526.13C1058.46 568.939 961.29 561.739 945.402 543.983C929.513 526.228 942.491 512.011 978.34 484.992Z" fill="#41EAD4"/>
</g>
<g opacity="0.5" filter="url(#filter4_f_1_4731)">
<path d="M938.655 441.483C953.198 430.522 943.199 414 936.381 407.109C1019.69 426.328 974.087 440.636 976.686 462.345C979.285 484.054 930.008 480.402 921.951 471.398C913.894 462.395 920.475 455.185 938.655 441.483Z" fill="#7741EA"/>
</g>
<g opacity="0.5" filter="url(#filter5_f_1_4731)">
<path d="M389.987 380.255C404.53 369.294 394.531 352.772 387.713 345.881C471.026 365.1 425.419 379.408 428.018 401.117C430.617 422.825 381.341 419.174 373.284 410.17C365.227 401.166 371.807 393.957 389.987 380.255Z" fill="#7741EA"/>
</g>
<g opacity="0.1" filter="url(#filter6_f_1_4731)">
<path fill-rule="evenodd" clip-rule="evenodd" d="M903.485 324.378C965.614 317.482 1027.67 344.674 1066.91 387.429C1106.34 430.382 1121.19 488.747 1102.7 541.43C1085.57 590.261 1032.59 618.877 978.781 638.565C929.29 656.672 875.257 661.119 825.918 642.697C773.428 623.098 722.67 588.911 713.625 539.559C704.995 492.47 751.579 456.47 784.873 418.735C819.235 379.79 847.741 330.566 903.485 324.378Z" fill="#7741EA"/>
</g>
<g opacity="0.1" filter="url(#filter7_f_1_4731)">
<path fill-rule="evenodd" clip-rule="evenodd" d="M1057.04 693.969C1119.17 687.073 1181.22 714.265 1220.47 757.02C1259.89 799.973 1274.74 858.338 1256.26 911.021C1239.12 959.852 1186.15 988.468 1132.34 1008.16C1082.84 1026.26 1028.81 1030.71 979.472 1012.29C926.983 992.689 876.225 958.502 867.18 909.15C858.55 862.061 905.133 826.061 938.427 788.327C972.79 749.381 1001.3 700.157 1057.04 693.969Z" fill="#7741EA"/>
</g>
<g opacity="0.07" filter="url(#filter8_f_1_4731)">
<path fill-rule="evenodd" clip-rule="evenodd" d="M511.084 275.833C591.303 266.929 671.428 302.039 722.095 357.243C772.999 412.704 792.179 488.064 768.308 556.087C746.182 619.137 677.785 656.086 608.304 681.507C544.402 704.887 474.636 710.629 410.931 686.842C343.158 661.536 277.62 617.394 265.942 553.672C254.799 492.871 314.946 446.388 357.934 397.666C402.302 347.381 439.109 283.823 511.084 275.833Z" fill="#41EAD4"/>
</g>
<g opacity="0.1" filter="url(#filter9_f_1_4731)">
<path fill-rule="evenodd" clip-rule="evenodd" d="M1008.31 448.377C928.089 439.472 847.964 474.583 797.296 529.787C746.392 585.248 727.212 660.608 751.083 728.631C773.209 791.681 841.607 828.63 911.087 854.051C974.989 877.431 1044.75 883.173 1108.46 859.386C1176.23 834.08 1241.77 789.938 1253.45 726.215C1264.59 665.414 1204.45 618.932 1161.46 570.21C1117.09 519.924 1080.28 456.366 1008.31 448.377Z" fill="#41EAD4"/>
</g>
<g opacity="0.11" filter="url(#filter10_f_1_4731)">
<path fill-rule="evenodd" clip-rule="evenodd" d="M450.459 275.494C510.948 268.783 571.367 295.246 609.573 336.854C647.957 378.655 662.419 435.455 644.42 486.724C627.736 534.246 576.16 562.094 523.768 581.254C475.583 598.876 422.976 603.204 374.938 585.275C323.834 566.202 274.415 532.932 265.609 484.903C257.207 439.077 302.561 404.043 334.977 367.321C368.432 329.42 396.186 281.516 450.459 275.494Z" fill="#BE41EA"/>
</g>
<defs>
<filter id="filter0_f_1_4731" x="29.145" y="0.969604" width="634.634" height="640.741" filterUnits="userSpaceOnUse" color-interpolation-filters="sRGB">
<feFlood flood-opacity="0" result="BackgroundImageFix"/>
<feBlend mode="normal" in="SourceGraphic" in2="BackgroundImageFix" result="shape"/>
<feGaussianBlur stdDeviation="125" result="effect1_foregroundBlur_1_4731"/>
</filter>
<filter id="filter1_f_1_4731" x="-54.0083" y="547.105" width="754.067" height="765.591" filterUnits="userSpaceOnUse" color-interpolation-filters="sRGB">
<feFlood flood-opacity="0" result="BackgroundImageFix"/>
<feBlend mode="normal" in="SourceGraphic" in2="BackgroundImageFix" result="shape"/>
<feGaussianBlur stdDeviation="125" result="effect1_foregroundBlur_1_4731"/>
</filter>
<filter id="filter2_f_1_4731" x="103.195" y="636.965" width="745.102" height="714.859" filterUnits="userSpaceOnUse" color-interpolation-filters="sRGB">
<feFlood flood-opacity="0" result="BackgroundImageFix"/>
<feBlend mode="normal" in="SourceGraphic" in2="BackgroundImageFix" result="shape"/>
<feGaussianBlur stdDeviation="125" result="effect1_foregroundBlur_1_4731"/>
</filter>
<filter id="filter3_f_1_4731" x="688.712" y="167.206" width="634.634" height="640.741" filterUnits="userSpaceOnUse" color-interpolation-filters="sRGB">
<feFlood flood-opacity="0" result="BackgroundImageFix"/>
<feBlend mode="normal" in="SourceGraphic" in2="BackgroundImageFix" result="shape"/>
<feGaussianBlur stdDeviation="125" result="effect1_foregroundBlur_1_4731"/>
</filter>
<filter id="filter4_f_1_4731" x="668.559" y="157.109" width="568.274" height="571.371" filterUnits="userSpaceOnUse" color-interpolation-filters="sRGB">
<feFlood flood-opacity="0" result="BackgroundImageFix"/>
<feBlend mode="normal" in="SourceGraphic" in2="BackgroundImageFix" result="shape"/>
<feGaussianBlur stdDeviation="125" result="effect1_foregroundBlur_1_4731"/>
</filter>
<filter id="filter5_f_1_4731" x="119.891" y="95.8807" width="568.274" height="571.371" filterUnits="userSpaceOnUse" color-interpolation-filters="sRGB">
<feFlood flood-opacity="0" result="BackgroundImageFix"/>
<feBlend mode="normal" in="SourceGraphic" in2="BackgroundImageFix" result="shape"/>
<feGaussianBlur stdDeviation="125" result="effect1_foregroundBlur_1_4731"/>
</filter>
<filter id="filter6_f_1_4731" x="462.578" y="73.3118" width="898.011" height="831.205" filterUnits="userSpaceOnUse" color-interpolation-filters="sRGB">
<feFlood flood-opacity="0" result="BackgroundImageFix"/>
<feBlend mode="normal" in="SourceGraphic" in2="BackgroundImageFix" result="shape"/>
<feGaussianBlur stdDeviation="125" result="effect1_foregroundBlur_1_4731"/>
</filter>
<filter id="filter7_f_1_4731" x="616.133" y="442.903" width="898.011" height="831.205" filterUnits="userSpaceOnUse" color-interpolation-filters="sRGB">
<feFlood flood-opacity="0" result="BackgroundImageFix"/>
<feBlend mode="normal" in="SourceGraphic" in2="BackgroundImageFix" result="shape"/>
<feGaussianBlur stdDeviation="125" result="effect1_foregroundBlur_1_4731"/>
</filter>
<filter id="filter8_f_1_4731" x="14.5898" y="24.4564" width="1013.9" height="927.648" filterUnits="userSpaceOnUse" color-interpolation-filters="sRGB">
<feFlood flood-opacity="0" result="BackgroundImageFix"/>
<feBlend mode="normal" in="SourceGraphic" in2="BackgroundImageFix" result="shape"/>
<feGaussianBlur stdDeviation="125" result="effect1_foregroundBlur_1_4731"/>
</filter>
<filter id="filter9_f_1_4731" x="490.901" y="197" width="1013.9" height="927.648" filterUnits="userSpaceOnUse" color-interpolation-filters="sRGB">
<feFlood flood-opacity="0" result="BackgroundImageFix"/>
<feBlend mode="normal" in="SourceGraphic" in2="BackgroundImageFix" result="shape"/>
<feGaussianBlur stdDeviation="125" result="effect1_foregroundBlur_1_4731"/>
</filter>
<filter id="filter10_f_1_4731" x="14.5898" y="24.4564" width="887.508" height="822.322" filterUnits="userSpaceOnUse" color-interpolation-filters="sRGB">
<feFlood flood-opacity="0" result="BackgroundImageFix"/>
<feBlend mode="normal" in="SourceGraphic" in2="BackgroundImageFix" result="shape"/>
<feGaussianBlur stdDeviation="125" result="effect1_foregroundBlur_1_4731"/>
</filter>
</defs>
</svg>
